<svg xmlns="http://www.w3.org/2000/svg" width="45" height="44" viewBox="0 0 45 44"><defs><linearGradient id="a" x1="-3.467%" x2="210.392%" y1="-4.306%" y2="212.161%"><stop offset="0%" stop-color="#00B388"/><stop offset="13.16%" stop-color="#00B097"/><stop offset="51.16%" stop-color="#00A9BF"/><stop offset="81.43%" stop-color="#00A5D7"/><stop offset="100%" stop-color="#00A3E0"/></linearGradient><linearGradient id="b" x1="-110.425%" x2="103.434%" y1="-109.345%" y2="104.514%"><stop offset="0%" stop-color="#00B388"/><stop offset="13.16%" stop-color="#00B097"/><stop offset="51.16%" stop-color="#00A9BF"/><stop offset="81.43%" stop-color="#00A5D7"/><stop offset="100%" stop-color="#00A3E0"/></linearGradient><linearGradient id="c" x1="-110.655%" x2="103.204%" y1="-109.117%" y2="104.742%"><stop offset="0%" stop-color="#00B388"/><stop offset="13.16%" stop-color="#00B097"/><stop offset="51.16%" stop-color="#00A9BF"/><stop offset="81.43%" stop-color="#00A5D7"/><stop offset="100%" stop-color="#00A3E0"/></linearGradient><linearGradient id="d" x1="-480.077%" x2="349.632%" y1="-332.966%" y2="250.643%"><stop offset="0%" stop-color="#00B388"/><stop offset="13.16%" stop-color="#00B097"/><stop offset="51.16%" stop-color="#00A9BF"/><stop offset="81.43%" stop-color="#00A5D7"/><stop offset="100%" stop-color="#00A3E0"/></linearGradient><linearGradient id="e" x1="-762.162%" x2="67.552%" y1="-487.336%" y2="88.137%"><stop offset="0%" stop-color="#00B388"/><stop offset="13.16%" stop-color="#00B097"/><stop offset="51.16%" stop-color="#00A9BF"/><stop offset="81.43%" stop-color="#00A5D7"/><stop offset="100%" stop-color="#00A3E0"/></linearGradient><linearGradient id="f" x1="-301.557%" x2="101.859%" y1="-301.641%" y2="101.775%"><stop offset="0%" stop-color="#00B388"/><stop offset="13.16%" stop-color="#00B097"/><stop offset="51.16%" stop-color="#00A9BF"/><stop offset="81.43%" stop-color="#00A5D7"/><stop offset="100%" stop-color="#00A3E0"/></linearGradient><linearGradient id="g" x1="-328.292%" x2="247.159%" y1="-480.073%" y2="349.604%"><stop offset="0%" stop-color="#00B388"/><stop offset="13.16%" stop-color="#00B097"/><stop offset="51.16%" stop-color="#00A9BF"/><stop offset="81.43%" stop-color="#00A5D7"/><stop offset="100%" stop-color="#00A3E0"/></linearGradient><linearGradient id="h" x1="-249.244%" x2="580.442%" y1="-150.288%" y2="433.302%"><stop offset="0%" stop-color="#00B388"/><stop offset="13.16%" stop-color="#00B097"/><stop offset="51.16%" stop-color="#00A9BF"/><stop offset="81.43%" stop-color="#00A5D7"/><stop offset="100%" stop-color="#00A3E0"/></linearGradient><linearGradient id="i" x1="13.253%" x2="580.333%" y1="34.814%" y2="905.173%"><stop offset="0%" stop-color="#00B388"/><stop offset="13.16%" stop-color="#00B097"/><stop offset="51.16%" stop-color="#00A9BF"/><stop offset="81.43%" stop-color="#00A5D7"/><stop offset="100%" stop-color="#00A3E0"/></linearGradient><linearGradient id="j" x1="-1.67%" x2="401.752%" y1="-1.53%" y2="401.895%"><stop offset="0%" stop-color="#00B388"/><stop offset="13.16%" stop-color="#00B097"/><stop offset="51.16%" stop-color="#00A9BF"/><stop offset="81.43%" stop-color="#00A5D7"/><stop offset="100%" stop-color="#00A3E0"/></linearGradient><linearGradient id="k" x1="34.126%" x2="847.967%" y1="12.206%" y2="587.686%"><stop offset="0%" stop-color="#00B388"/><stop offset="13.16%" stop-color="#00B097"/><stop offset="51.16%" stop-color="#00A9BF"/><stop offset="81.43%" stop-color="#00A5D7"/><stop offset="100%" stop-color="#00A3E0"/></linearGradient><linearGradient id="l" x1="-493.976%" x2="89.538%" y1="-766.939%" y2="62.639%"><stop offset="0%" stop-color="#00B388"/><stop offset="13.16%" stop-color="#00B097"/><stop offset="51.16%" stop-color="#00A9BF"/><stop offset="81.43%" stop-color="#00A5D7"/><stop offset="100%" stop-color="#00A3E0"/></linearGradient><linearGradient id="m" x1="-151.947%" x2="251.475%" y1="-151.257%" y2="252.164%"><stop offset="0%" stop-color="#00B388"/><stop offset="13.16%" stop-color="#00B097"/><stop offset="51.16%" stop-color="#00A9BF"/><stop offset="81.43%" stop-color="#00A5D7"/><stop offset="100%" stop-color="#00A3E0"/></linearGradient><linearGradient id="n" x1="-151.808%" x2="442.927%" y1="-249.109%" y2="580.577%"><stop offset="0%" stop-color="#00B388"/><stop offset="13.16%" stop-color="#00B097"/><stop offset="51.16%" stop-color="#00A9BF"/><stop offset="81.43%" stop-color="#00A5D7"/><stop offset="100%" stop-color="#00A3E0"/></linearGradient><linearGradient id="o" x1="-151.284%" x2="252.132%" y1="-151.916%" y2="251.5%"><stop offset="0%" stop-color="#00B388"/><stop offset="13.16%" stop-color="#00B097"/><stop offset="51.16%" stop-color="#00A9BF"/><stop offset="81.43%" stop-color="#00A5D7"/><stop offset="100%" stop-color="#00A3E0"/></linearGradient><linearGradient id="p" x1="-3.101%" x2="210.758%" y1="-3.457%" y2="213.01%"><stop offset="0%" stop-color="#00B388"/><stop offset="13.16%" stop-color="#00B097"/><stop offset="51.16%" stop-color="#00A9BF"/><stop offset="81.43%" stop-color="#00A5D7"/><stop offset="100%" stop-color="#00A3E0"/></linearGradient></defs><g fill="none" fill-rule="evenodd"><path fill="url(#a)" d="M22.85 13.623c-.345.339-1.035.339-1.38 0l-6.211-6.092c-.345-.339-.345-1.016 0-1.354l6.21-5.923c.346-.339 1.036-.339 1.381 0l6.211 6.092c.345.339.345 1.016 0 1.354l-6.211 5.923z"/><path fill="url(#b)" d="M22.85 42.792c-.345.339-1.035.339-1.38 0L15.259 36.7c-.345-.338-.345-1.015 0-1.354l6.21-6.092c.346-.339 1.036-.339 1.381 0l6.211 6.092c.345.339.345 1.016 0 1.354l-6.211 6.092z"/><path fill="url(#c)" d="M37.85 27.792c-.345.339-1.035.339-1.38 0L30.259 21.7c-.345-.338-.345-1.015 0-1.354l6.21-6.092c.346-.339 1.036-.339 1.381 0l6.211 6.092c.345.339.345 1.016 0 1.354l-6.211 6.092z"/><path fill="url(#d)" d="M14.519 37.515c0-.508-.346-.677-.69-.339l-2.589 2.708c-.345.338-.345.846.173 1.184l2.415 1.016c.518.169.863 0 .863-.508v-4.061h-.172z"/><path fill="url(#e)" d="M33.278 41.068c.518-.169.518-.677.173-1.184l-2.76-2.708c-.346-.338-.691-.17-.691.339v4.061c0 .508.345.846.863.508l2.415-1.016z"/><path fill="url(#f)" d="M37.591 30.015c0-.507-.517-1.015-1.035-1.015h-5.52c-.518 0-1.036.508-1.036 1.015v5.416c0 .507.518 1.015 1.035 1.015h5.521c.518 0 1.035-.508 1.035-1.015v-5.416z"/><path fill="url(#g)" d="M42.148 10.405c-.173-.508-.69-.508-1.208-.17l-2.76 2.709c-.346.338-.173.677.345.677h4.14c.518 0 .863-.339.518-.847l-1.035-2.369z"/><path fill="url(#h)" d="M33.45 3.263c.346-.507.346-1.015-.172-1.184l-2.415-1.016c-.518-.169-.863 0-.863.508v4.062c0 .507.345.677.69.338l2.76-2.708z"/><path fill="url(#i)" d="M3.46 10.236c-.517-.339-1.035-.339-1.207.17l-1.208 2.2c-.173.507.172.845.69.845h4.14c.518 0 .69-.338.346-.677l-2.76-2.538z"/><path fill="url(#j)" d="M14.419 8.015C14.419 7.508 13.9 7 13.384 7H8.035C7.518 7 7 7.508 7 8.015v5.416c0 .507.518 1.015 1.035 1.015h5.521c.518 0 1.035-.508 1.035-1.015V8.015h-.172z"/><path fill="url(#k)" d="M14.59 1.644c0-.508-.345-.846-.862-.508l-2.243 1.016c-.518.169-.69.677-.172 1.184l2.76 2.708c.345.338.69.17.69-.339V1.644h-.172z"/><path fill="url(#l)" d="M43.183 29.846c.172-.508 0-.846-.518-.846h-4.14c-.518 0-.69.338-.345.677l2.76 2.708c.345.338.863.338 1.208-.17l1.035-2.369z"/><path fill="url(#m)" d="M14.419 30.015c0-.507-.518-1.015-1.035-1.015H8.035C7.518 29 7 29.508 7 30.015v5.416c0 .507.518 1.015 1.035 1.015h5.521c.518 0 1.035-.508 1.035-1.015v-5.416h-.172z"/><path fill="url(#n)" d="M5.97 29.677c.345-.339.172-.677-.345-.677H1.656c-.517 0-.862.338-.517.846l1.035 2.37c.173.507.69.507 1.208.169l2.588-2.708z"/><path fill="url(#o)" d="M37.591 13.43c0 .508-.517 1.016-1.035 1.016h-5.52c-.518 0-1.036-.508-1.036-1.015V8.015C30 7.508 30.518 7 31.035 7h5.521c.518 0 1.035.508 1.035 1.015v5.416z"/><path fill="url(#p)" d="M7.85 28.623c-.345.339-1.035.339-1.38 0L.259 22.531c-.345-.339-.345-1.016 0-1.354l6.21-5.923c.346-.339 1.036-.339 1.381 0l6.211 6.092c.345.339.345 1.016 0 1.354L7.85 28.623z"/></g></svg>